<svg id="Layer_1" enable-background="new 0 0 511.96 511.96" height="512" viewBox="0 0 511.96 511.96" width="512" xmlns="http://www.w3.org/2000/svg"><g><g><path d="m509.7 313.968c-.33 3.66-3.27 6.54-6.93 6.8-11 .79-22.45 1.53-34.13 2.2-3.9 12.4-8.9 24.46-14.92 36 7.79 8.75 15.37 17.37 22.58 25.7 2.42 2.79 2.45 6.92.07 9.74-38.17 45.33-81.56 81.62-81.99 81.98-2.82 2.35-6.93 2.32-9.71-.09-8.34-7.22-16.97-14.8-25.7-22.58-11.54 6.02-23.6 11.02-36 14.92-.67 11.7-1.41 23.16-2.2 34.13-.26 3.68-3.16 6.62-6.84 6.93-8.42.72-16.78 1.24-24.94 1.6-11 .48-21.61.66-31.47.66-34.11 0-59.16-2.23-59.53-2.26-3.66-.33-6.54-3.27-6.8-6.93-.79-10.96-1.53-22.42-2.2-34.13-12.4-3.9-24.47-8.91-36-14.92-8.74 7.79-17.37 15.37-25.7 22.58-2.79 2.42-6.92 2.44-9.74.07-45.33-38.17-81.62-81.56-81.98-81.99-2.35-2.82-2.32-6.93.09-9.71 7.21-8.33 14.79-16.95 22.58-25.7-6.02-11.54-11.02-23.6-14.92-36-11.68-.67-23.13-1.41-34.13-2.2-3.68-.26-6.62-3.16-6.93-6.84-5.06-59.04-.05-115.38 0-115.94.33-3.66 3.27-6.54 6.93-6.8 10.97-.79 22.43-1.53 34.13-2.2 3.9-12.4 8.91-24.47 14.92-36-7.78-8.74-15.36-17.36-22.58-25.7-2.42-2.79-2.44-6.92-.07-9.74 38.17-45.33 81.56-81.62 81.99-81.98 2.82-2.36 6.93-2.32 9.71.09 8.31 7.19 16.94 14.77 25.7 22.58 11.54-6.02 23.6-11.02 36-14.92.67-11.7 1.41-23.16 2.2-34.13.26-3.68 3.16-6.62 6.84-6.93 34.58-2.96 68.23-2.47 90.3-1.54 15.6.65 25.41 1.52 25.64 1.54 3.66.33 6.54 3.27 6.8 6.93.79 10.97 1.53 22.42 2.2 34.13 12.4 3.9 24.46 8.9 36 14.92 8.73-7.78 17.36-15.36 25.7-22.58 2.79-2.42 6.92-2.44 9.74-.07 45.33 38.17 81.62 81.56 81.99 81.99 2.35 2.82 2.31 6.93-.1 9.71-7.22 8.34-14.8 16.97-22.58 25.7 6.02 11.54 11.02 23.6 14.92 36 11.7.67 23.16 1.41 34.13 2.2 3.68.26 6.62 3.16 6.93 6.84 5.06 59.04.05 115.38 0 115.94z" fill="#969eee"/><path d="m509.7 313.968c-.33 3.66-3.27 6.54-6.93 6.8-11 .79-22.45 1.53-34.13 2.2-3.9 12.4-8.9 24.46-14.92 36 7.79 8.75 15.37 17.37 22.58 25.7 2.42 2.79 2.45 6.92.07 9.74-38.17 45.33-81.56 81.62-81.99 81.98-2.82 2.35-6.93 2.32-9.71-.09-8.34-7.22-16.97-14.8-25.7-22.58-11.54 6.02-23.6 11.02-36 14.92-.67 11.7-1.41 23.16-2.2 34.13-.26 3.68-3.16 6.62-6.84 6.93-8.42.72-16.78 1.24-24.94 1.6l2.58-53.02c93.82-19.48 164.54-102.79 164.54-202.3s-70.72-182.82-164.54-202.3l-3.24-52.96c15.6.65 25.41 1.52 25.64 1.54 3.66.33 6.54 3.27 6.8 6.93.79 10.97 1.53 22.42 2.2 34.13 12.4 3.9 24.46 8.9 36 14.92 8.73-7.78 17.36-15.36 25.7-22.58 2.79-2.42 6.92-2.44 9.74-.07 45.33 38.17 81.62 81.56 81.99 81.99 2.35 2.82 2.31 6.93-.1 9.71-7.22 8.34-14.8 16.97-22.58 25.7 6.02 11.54 11.02 23.6 14.92 36 11.7.67 23.16 1.41 34.13 2.2 3.68.26 6.62 3.16 6.93 6.84 5.06 59.04.05 115.38 0 115.94z" fill="#6b77e7"/></g><path d="m418.39 255.978c0 95.07-67.34 172.41-162.41 172.41-4.03 0-8.03-.14-12-.41-89.49-6.18-160.41-80.96-160.41-172s70.92-165.82 160.41-172c3.97-.27 7.97-.41 12-.41 95.07 0 162.41 77.34 162.41 172.41z" fill="#e2e2eb"/><path d="m428.39 255.978c0 95.07-77.34 172.41-172.41 172.41-4.03 0-8.03-.14-12-.41 89.49-6.18 160.41-80.96 160.41-172s-70.92-165.82-160.41-172c3.97-.27 7.97-.41 12-.41 95.07 0 172.41 77.34 172.41 172.41z" fill="#bcbcd1"/><path d="m389.5 255.978c0 55.64-34.03 103.32-82.41 123.39-15.74 6.53-33.01 10.13-51.11 10.13s-35.37-3.6-51.11-10.13c-48.38-20.07-82.41-67.75-82.41-123.39 0-73.74 59.78-133.52 133.52-133.52s133.52 59.78 133.52 133.52z" fill="#fff"/><g><path d="m307.09 379.368c-7.26 3.02-14.85 5.4-22.7 7.09-9.15 2-18.66 3.04-28.41 3.04-18.1 0-35.37-3.6-51.11-10.13-5.39-81.73-.02-133.61.49-138.25.01-.12.02-.21.03-.27l50.59-13.48 20.64 5.5 29.95 7.98c.01.06.02.16.03.29.53 4.8 5.87 56.64.49 138.23z" fill="#ffd07b"/><g fill="#f6b95e"><path d="m307.09 379.368c-7.26 3.02-14.85 5.4-22.7 7.09 3.47-81.82-.43-142.44-.43-142.44-2.69-3.52-5.13-7.27-7.34-11.15l29.95 7.98c.01.06.02.16.03.29.53 4.8 5.87 56.64.49 138.23z"/><path d="m256.003 276.478c-4.142 0-7.5 3.358-7.5 7.5v65.134c0 4.142 3.358 7.5 7.5 7.5 4.143 0 7.5-3.358 7.5-7.5v-65.134c0-4.142-3.358-7.5-7.5-7.5z"/></g></g><g><path d="m306.6 241.138c-7.58 1.34-15.18 2.27-22.64 2.89-37.37 3.1-71.01-1.71-78.6-2.91.01-.12.02-.21.03-.27.18-1.65.91-3.19 2.07-4.38 12.89-13.29 23.82-30.88 31.25-44.45l17.27-3.65 4.16.88 13.11 2.77c7.43 13.57 18.37 31.16 31.26 44.45 1.15 1.19 1.88 2.73 2.06 4.38.01.06.02.16.03.29z" fill="#f4f2f1"/><path d="m283.96 244.028c0-.01 0-.01 0-.01-12.7-16.63-19.91-38.52-23.82-54.77l13.11 2.77c7.43 13.57 18.37 31.16 31.26 44.45 1.15 1.19 1.88 2.73 2.06 4.38.01.06.02.16.03.29-7.58 1.34-15.18 2.27-22.64 2.89z" fill="#ded6d4"/></g><path d="m273.25 192.018c-3.31 2.26-7.09 3.89-11.17 4.71-1.97.4-4.01.61-6.1.61-6.41 0-12.35-1.96-17.27-5.32 6.49-11.86 10.3-20.65 10.38-20.84.59-1.38 1.56-2.52 2.76-3.3 1.2-.8 2.63-1.24 4.13-1.24 3 0 5.71 1.78 6.89 4.54.08.19 3.89 8.98 10.38 20.84z" fill="#9696b8"/><path d="m262.87 171.178c.08.19 3.89 8.98 10.38 20.84-3.31 2.26-7.09 3.89-11.17 4.71-4.7-16.89-6.1-30.09-6.1-30.09 3 0 5.71 1.78 6.89 4.54z" fill="#7c7c96"/></g></svg>